<svg xmlns="http://www.w3.org/2000/svg" xmlns:xlink="http://www.w3.org/1999/xlink">
    <path fill-rule="evenodd" stroke-width="15px" stroke="#5A199E" fill="#681CB8" d="M62.500,12.500 L210.500,12.500 C238.114,12.500 260.500,34.886 260.500,62.500 L260.500,210.500 C260.500,238.114 238.114,260.500 210.500,260.500 L62.500,260.500 C34.886,260.500 12.500,238.114 12.500,210.500 L12.500,62.500 C12.500,34.886 34.886,12.500 62.500,12.500 Z"/>
    <path fill-rule="evenodd" fill="#FFFFFF" d="M110.179,71.534 L135.019,71.534 C135.019,71.534 138.475,70.884 140.419,78.028 C142.363,85.172 155.538,131.064 155.538,131.064 L156.618,131.064 L163.098,99.675 L169.578,99.675 L151.218,94.263 L165.258,93.181 L169.578,73.699 C169.578,73.699 168.983,71.534 174.978,71.534 C180.973,71.534 201.978,71.534 201.978,71.534 L204.138,71.534 C204.138,71.534 207.347,70.826 206.298,75.863 C205.248,80.901 176.058,198.171 176.058,198.171 C176.058,198.171 175.306,202.500 171.738,202.500 C168.171,202.500 152.298,202.500 152.298,202.500 C152.298,202.500 145.981,202.201 143.659,196.006 L142.579,188.429 L152.298,188.429 L133.939,183.017 L133.939,181.935 L140.419,181.935 L129.619,139.723 L128.539,139.723 L114.499,199.253 C114.499,199.253 114.024,202.500 106.939,202.500 C99.855,202.500 79.940,202.500 79.940,202.500 C79.940,202.500 77.780,202.536 77.780,199.253 C77.780,195.970 82.100,178.688 82.100,178.688 L106.939,178.688 L60.500,173.276 L60.500,172.194 L84.260,171.111 L91.819,139.723 L117.739,139.723 L71.300,133.229 L71.300,132.146 L95.059,131.064 L100.459,104.005 L128.539,104.005 L82.100,97.511 L82.100,96.428 L102.619,96.428 L104.779,84.522 L131.779,84.522 L83.180,78.028 L83.180,76.946 L106.939,76.946 C106.939,76.946 107.106,73.279 110.179,71.534 Z"/>
</svg>