<?xml version="1.0" standalone="no"?>
<!DOCTYPE svg PUBLIC "-//W3C//DTD SVG 20010904//EN" "http://www.w3.org/TR/2001/REC-SVG-20010904/DTD/svg10.dtd">
<svg version="1.0" xmlns="http://www.w3.org/2000/svg" viewBox="0 0 447.000000 400.000000" preserveAspectRatio="xMidYMid meet" style="
    width: 100%;
    height: auto;
">
	<defs>
		<style>
			g { display: none; }
			g:target { display: initial; }
		</style>
	</defs>
	<g id="black" transform="translate(0.000000,400.000000) scale(0.100000,-0.100000)" fill="#000000" stroke="none">
		<path d="M1535 3988 c-57 -20 -95 -71 -95 -128 l0 -30 -371 0 c-292 0 -370 -3
-367 -12 5 -14 104 -28 898 -128 267 -33 512 -64 545 -69 39 -6 -85 -9 -356
-10 l-415 -1 -44 -185 -44 -185 -323 0 c-179 0 -323 -4 -323 -9 0 -25 363 -81
1000 -155 212 -25 399 -47 415 -49 17 -2 -164 -5 -402 -6 -402 -1 -432 -2
-437 -18 -2 -10 -44 -204 -92 -430 l-88 -413 -353 0 c-345 0 -353 0 -353 -20
0 -12 8 -21 23 -25 12 -2 310 -39 662 -80 352 -41 660 -79 685 -83 26 -4 -121
-9 -340 -12 l-385 -5 -120 -495 -121 -495 -367 -3 c-304 -2 -367 -5 -367 -16
0 -8 10 -16 23 -19 12 -3 322 -40 690 -83 l667 -79 -353 -3 -354 -2 -13 -78
c-6 -42 -41 -193 -77 -336 -35 -142 -62 -264 -59 -271 2 -7 26 -21 53 -31 43
-16 90 -18 438 -22 419 -4 580 6 603 36 58 76 199 610 392 1490 42 194 80 355
84 359 3 3 8 4 11 2 5 -6 335 -1231 335 -1246 0 -7 -32 -14 -75 -18 -68 -7
-75 -9 -75 -29 0 -20 21 -27 263 -88 l262 -66 -137 -1 -138 -1 0 -57 c1 -133
50 -267 120 -324 63 -53 106 -59 396 -59 225 0 460 12 472 25 28 27 319 1213
676 2745 301 1293 282 1201 247 1220 -13 6 -197 10 -530 10 l-510 0 -25 -33
c-44 -58 -130 -360 -171 -599 l-6 -38 -199 0 -200 0 0 -25 c0 -19 5 -25 23
-25 24 0 487 -117 495 -125 3 -3 -36 -5 -86 -5 -51 0 -92 -1 -92 -2 -4 -45
-219 -963 -226 -965 -6 -2 -16 25 -22 61 -15 82 -116 431 -232 804 -50 161
-104 354 -121 430 -38 166 -100 359 -136 421 -15 25 -40 58 -56 74 l-29 27
-382 -1 c-239 0 -392 -5 -411 -11z" />
	</g>
	<g id="white" transform="translate(0.000000,400.000000) scale(0.100000,-0.100000)" fill="#FFFFFF" stroke="none">
		<path d="M1535 3988 c-57 -20 -95 -71 -95 -128 l0 -30 -371 0 c-292 0 -370 -3
-367 -12 5 -14 104 -28 898 -128 267 -33 512 -64 545 -69 39 -6 -85 -9 -356
-10 l-415 -1 -44 -185 -44 -185 -323 0 c-179 0 -323 -4 -323 -9 0 -25 363 -81
1000 -155 212 -25 399 -47 415 -49 17 -2 -164 -5 -402 -6 -402 -1 -432 -2
-437 -18 -2 -10 -44 -204 -92 -430 l-88 -413 -353 0 c-345 0 -353 0 -353 -20
0 -12 8 -21 23 -25 12 -2 310 -39 662 -80 352 -41 660 -79 685 -83 26 -4 -121
-9 -340 -12 l-385 -5 -120 -495 -121 -495 -367 -3 c-304 -2 -367 -5 -367 -16
0 -8 10 -16 23 -19 12 -3 322 -40 690 -83 l667 -79 -353 -3 -354 -2 -13 -78
c-6 -42 -41 -193 -77 -336 -35 -142 -62 -264 -59 -271 2 -7 26 -21 53 -31 43
-16 90 -18 438 -22 419 -4 580 6 603 36 58 76 199 610 392 1490 42 194 80 355
84 359 3 3 8 4 11 2 5 -6 335 -1231 335 -1246 0 -7 -32 -14 -75 -18 -68 -7
-75 -9 -75 -29 0 -20 21 -27 263 -88 l262 -66 -137 -1 -138 -1 0 -57 c1 -133
50 -267 120 -324 63 -53 106 -59 396 -59 225 0 460 12 472 25 28 27 319 1213
676 2745 301 1293 282 1201 247 1220 -13 6 -197 10 -530 10 l-510 0 -25 -33
c-44 -58 -130 -360 -171 -599 l-6 -38 -199 0 -200 0 0 -25 c0 -19 5 -25 23
-25 24 0 487 -117 495 -125 3 -3 -36 -5 -86 -5 -51 0 -92 -1 -92 -2 -4 -45
-219 -963 -226 -965 -6 -2 -16 25 -22 61 -15 82 -116 431 -232 804 -50 161
-104 354 -121 430 -38 166 -100 359 -136 421 -15 25 -40 58 -56 74 l-29 27
-382 -1 c-239 0 -392 -5 -411 -11z" />
	</g>
	<g id="purple" transform="translate(0.000000,400.000000) scale(0.100000,-0.100000)" fill="#6800D6" stroke="none">
		<path d="M1535 3988 c-57 -20 -95 -71 -95 -128 l0 -30 -371 0 c-292 0 -370 -3
-367 -12 5 -14 104 -28 898 -128 267 -33 512 -64 545 -69 39 -6 -85 -9 -356
-10 l-415 -1 -44 -185 -44 -185 -323 0 c-179 0 -323 -4 -323 -9 0 -25 363 -81
1000 -155 212 -25 399 -47 415 -49 17 -2 -164 -5 -402 -6 -402 -1 -432 -2
-437 -18 -2 -10 -44 -204 -92 -430 l-88 -413 -353 0 c-345 0 -353 0 -353 -20
0 -12 8 -21 23 -25 12 -2 310 -39 662 -80 352 -41 660 -79 685 -83 26 -4 -121
-9 -340 -12 l-385 -5 -120 -495 -121 -495 -367 -3 c-304 -2 -367 -5 -367 -16
0 -8 10 -16 23 -19 12 -3 322 -40 690 -83 l667 -79 -353 -3 -354 -2 -13 -78
c-6 -42 -41 -193 -77 -336 -35 -142 -62 -264 -59 -271 2 -7 26 -21 53 -31 43
-16 90 -18 438 -22 419 -4 580 6 603 36 58 76 199 610 392 1490 42 194 80 355
84 359 3 3 8 4 11 2 5 -6 335 -1231 335 -1246 0 -7 -32 -14 -75 -18 -68 -7
-75 -9 -75 -29 0 -20 21 -27 263 -88 l262 -66 -137 -1 -138 -1 0 -57 c1 -133
50 -267 120 -324 63 -53 106 -59 396 -59 225 0 460 12 472 25 28 27 319 1213
676 2745 301 1293 282 1201 247 1220 -13 6 -197 10 -530 10 l-510 0 -25 -33
c-44 -58 -130 -360 -171 -599 l-6 -38 -199 0 -200 0 0 -25 c0 -19 5 -25 23
-25 24 0 487 -117 495 -125 3 -3 -36 -5 -86 -5 -51 0 -92 -1 -92 -2 -4 -45
-219 -963 -226 -965 -6 -2 -16 25 -22 61 -15 82 -116 431 -232 804 -50 161
-104 354 -121 430 -38 166 -100 359 -136 421 -15 25 -40 58 -56 74 l-29 27
-382 -1 c-239 0 -392 -5 -411 -11z" />
	</g>
</svg>
