<?xml version="1.0" standalone="no"?>
<!DOCTYPE svg PUBLIC "-//W3C//DTD SVG 20010904//EN" "http://www.w3.org/TR/2001/REC-SVG-20010904/DTD/svg10.dtd">
<svg version="1.0" xmlns="http://www.w3.org/2000/svg" viewBox="0 0 447.000000 400.000000" width="100%" height="100%">
	<defs>
		<style>
			g > path { display: none; }
			g > path:target { display: initial; }
		</style>
	</defs>
	<g stroke="none">
		<path id="white" fill-rule="evenodd"  fill="#FFFFFF" d="M49.679,0.034 L74.519,0.034 C74.519,0.034 77.975,-0.616 79.919,6.528 C81.863,13.672 95.038,59.564 95.038,59.564 L96.118,59.564 L102.598,28.175 L109.078,28.175 L90.718,22.763 L104.758,21.681 L109.078,2.199 C109.078,2.199 108.483,0.034 114.478,0.034 C120.473,0.034 141.478,0.034 141.478,0.034 L143.638,0.034 C143.638,0.034 146.847,-0.674 145.797,4.363 C144.748,9.401 115.558,126.671 115.558,126.671 C115.558,126.671 114.806,131.000 111.238,131.000 C107.671,131.000 91.798,131.000 91.798,131.000 C91.798,131.000 85.481,130.701 83.159,124.506 L82.079,116.929 L91.798,116.929 L73.439,111.517 L73.439,110.435 L79.919,110.435 L69.119,68.223 L68.039,68.223 L53.999,127.753 C53.999,127.753 53.524,131.000 46.439,131.000 C39.355,131.000 19.440,131.000 19.440,131.000 C19.440,131.000 17.280,131.036 17.280,127.753 C17.280,124.470 21.600,107.188 21.600,107.188 L46.439,107.188 L-0.000,101.776 L-0.000,100.694 L23.760,99.611 L31.319,68.223 L57.239,68.223 L10.800,61.729 L10.800,60.646 L34.559,59.564 L39.959,32.505 L68.039,32.505 L21.600,26.011 L21.600,24.928 L42.119,24.928 L44.279,13.022 L71.279,13.022 L22.680,6.528 L22.680,5.446 L46.439,5.446 C46.439,5.446 46.606,1.779 49.679,0.034 Z"/>
		<path id="black" fill-rule="evenodd"  fill="#222222" d="M49.679,0.034 L74.519,0.034 C74.519,0.034 77.975,-0.616 79.919,6.528 C81.863,13.672 95.038,59.564 95.038,59.564 L96.118,59.564 L102.598,28.175 L109.078,28.175 L90.718,22.763 L104.758,21.681 L109.078,2.199 C109.078,2.199 108.483,0.034 114.478,0.034 C120.473,0.034 141.478,0.034 141.478,0.034 L143.638,0.034 C143.638,0.034 146.847,-0.674 145.797,4.363 C144.748,9.401 115.558,126.671 115.558,126.671 C115.558,126.671 114.806,131.000 111.238,131.000 C107.671,131.000 91.798,131.000 91.798,131.000 C91.798,131.000 85.481,130.701 83.159,124.506 L82.079,116.929 L91.798,116.929 L73.439,111.517 L73.439,110.435 L79.919,110.435 L69.119,68.223 L68.039,68.223 L53.999,127.753 C53.999,127.753 53.524,131.000 46.439,131.000 C39.355,131.000 19.440,131.000 19.440,131.000 C19.440,131.000 17.280,131.036 17.280,127.753 C17.280,124.470 21.600,107.188 21.600,107.188 L46.439,107.188 L-0.000,101.776 L-0.000,100.694 L23.760,99.611 L31.319,68.223 L57.239,68.223 L10.800,61.729 L10.800,60.646 L34.559,59.564 L39.959,32.505 L68.039,32.505 L21.600,26.011 L21.600,24.928 L42.119,24.928 L44.279,13.022 L71.279,13.022 L22.680,6.528 L22.680,5.446 L46.439,5.446 C46.439,5.446 46.606,1.779 49.679,0.034 Z"/>
		<path id="purple" fill-rule="evenodd"  fill="#6800D6" d="M49.679,0.034 L74.519,0.034 C74.519,0.034 77.975,-0.616 79.919,6.528 C81.863,13.672 95.038,59.564 95.038,59.564 L96.118,59.564 L102.598,28.175 L109.078,28.175 L90.718,22.763 L104.758,21.681 L109.078,2.199 C109.078,2.199 108.483,0.034 114.478,0.034 C120.473,0.034 141.478,0.034 141.478,0.034 L143.638,0.034 C143.638,0.034 146.847,-0.674 145.797,4.363 C144.748,9.401 115.558,126.671 115.558,126.671 C115.558,126.671 114.806,131.000 111.238,131.000 C107.671,131.000 91.798,131.000 91.798,131.000 C91.798,131.000 85.481,130.701 83.159,124.506 L82.079,116.929 L91.798,116.929 L73.439,111.517 L73.439,110.435 L79.919,110.435 L69.119,68.223 L68.039,68.223 L53.999,127.753 C53.999,127.753 53.524,131.000 46.439,131.000 C39.355,131.000 19.440,131.000 19.440,131.000 C19.440,131.000 17.280,131.036 17.280,127.753 C17.280,124.470 21.600,107.188 21.600,107.188 L46.439,107.188 L-0.000,101.776 L-0.000,100.694 L23.760,99.611 L31.319,68.223 L57.239,68.223 L10.800,61.729 L10.800,60.646 L34.559,59.564 L39.959,32.505 L68.039,32.505 L21.600,26.011 L21.600,24.928 L42.119,24.928 L44.279,13.022 L71.279,13.022 L22.680,6.528 L22.680,5.446 L46.439,5.446 C46.439,5.446 46.606,1.779 49.679,0.034 Z"/>
	</g>
</svg>

